<svg width="20" height="20" viewBox="0 0 20 20" fill="none" xmlns="http://www.w3.org/2000/svg">
<path d="M8.4868 19.9994C8.27443 19.9994 8.15763 19.859 8.2001 19.6133L9.47431 12.656C9.50616 12.4453 9.62296 12.34 9.8141 12.34H10.1964C10.3875 12.34 10.5043 12.4453 10.5361 12.656L11.7997 19.6133C11.8422 19.859 11.7254 19.9994 11.513 19.9994H11.0637C10.862 19.9994 10.7793 19.9158 10.7793 19.7286C10.7793 19.6281 10.6357 18.2962 10.6043 18.0846C10.5729 17.8729 10.3784 17.6136 10.0052 17.6136C9.63207 17.6136 9.43757 17.8729 9.40616 18.0846C9.37475 18.2962 9.25525 19.6138 9.25525 19.7143C9.25525 19.9015 9.16367 19.9994 8.96192 19.9994H8.4868ZM9.54864 16.5176C9.54864 16.8218 9.72915 17.0208 10.0052 17.0208C10.2813 17.0208 10.4618 16.8218 10.4618 16.5176V16.1697C10.4618 15.8655 10.2813 15.6665 10.0052 15.6665C9.72915 15.6665 9.54864 15.8655 9.54864 16.1697V16.5176Z" fill="#FF5151"/>
<path d="M11.5132 9.3432e-05C11.7256 9.34505e-05 11.8424 0.140514 11.7999 0.386253L10.5257 7.34353C10.4938 7.55416 10.377 7.65948 10.1859 7.65948L9.80364 7.65948C9.61251 7.65948 9.49571 7.55416 9.46386 7.34353L8.20027 0.386253C8.1578 0.140514 8.2746 9.31489e-05 8.48696 9.31674e-05L8.93628 9.32067e-05C9.13803 9.32243e-05 9.22071 0.0836974 9.22071 0.270927C9.22071 0.371427 9.3643 1.7033 9.39571 1.91494C9.42712 2.12658 9.62162 2.38592 9.99477 2.38592C10.3679 2.38592 10.5624 2.12658 10.5938 1.91494C10.6253 1.7033 10.7447 0.385695 10.7447 0.285194C10.7447 0.0979647 10.8363 9.33728e-05 11.0381 9.33904e-05L11.5132 9.3432e-05ZM10.4514 3.48192C10.4514 3.17767 10.2709 2.97874 9.99477 2.97874C9.7187 2.97874 9.53818 3.17767 9.53818 3.48192L9.53818 3.82979C9.53818 4.13404 9.7187 4.33297 9.99477 4.33297C10.2709 4.33297 10.4514 4.13404 10.4514 3.82979L10.4514 3.48192Z" fill="#FF5151"/>
<path d="M2.09608 3.68958C2.20227 3.50566 2.38228 3.47472 2.57385 3.63437L7.96193 8.21651C8.12842 8.34941 8.16122 8.50322 8.06566 8.66875L7.87453 8.99979C7.77896 9.16532 7.62935 9.21381 7.43101 9.13608L0.77404 6.75174C0.539987 6.66566 0.47678 6.49429 0.582964 6.31038L0.807621 5.92126C0.908496 5.74654 1.02224 5.71674 1.18438 5.81036C1.27142 5.86061 2.49665 6.40219 2.69564 6.48081C2.89463 6.55942 3.21648 6.52065 3.40306 6.19749C3.58963 5.87433 3.46229 5.57621 3.29471 5.44319C3.12713 5.31017 2.0458 4.54788 1.95876 4.49763C1.79661 4.40402 1.75765 4.27576 1.85852 4.10104L2.09608 3.68958ZM4.58052 6.35007C4.31703 6.19795 4.05449 6.25481 3.91646 6.4939C3.77842 6.73299 3.86044 6.98879 4.12393 7.14091L4.42519 7.31484C4.68867 7.46697 4.95121 7.4101 5.08925 7.17101C5.22729 6.93192 5.14526 6.67613 4.88178 6.524L4.58052 6.35007Z" fill="#FF5151"/>
<path d="M17.9036 16.3099C17.7974 16.4938 17.6174 16.5248 17.4258 16.3651L12.0377 11.783C11.8712 11.6501 11.8384 11.4963 11.934 11.3308L12.1251 10.9997C12.2207 10.8342 12.3703 10.7857 12.5686 10.8634L19.2256 13.2478C19.4596 13.3339 19.5229 13.5052 19.4167 13.6891L19.192 14.0783C19.0911 14.253 18.9774 14.2828 18.8153 14.1892C18.7282 14.1389 17.503 13.5973 17.304 13.5187C17.105 13.4401 16.7832 13.4789 16.5966 13.802C16.41 14.1252 16.5373 14.4233 16.7049 14.5563C16.8725 14.6893 17.9538 15.4516 18.0409 15.5019C18.203 15.5955 18.242 15.7237 18.1411 15.8985L17.9036 16.3099ZM15.4191 13.6494C15.6826 13.8016 15.9451 13.7447 16.0832 13.5056C16.2212 13.2665 16.1392 13.0107 15.8757 12.8586L15.5744 12.6847C15.311 12.5325 15.0484 12.5894 14.9104 12.8285C14.7723 13.0676 14.8544 13.3234 15.1179 13.4755L15.4191 13.6494Z" fill="#FF5151"/>
<path d="M9.34446e-05 8.48655C9.34541e-05 8.27419 0.140514 8.15738 0.386253 8.19986L7.34353 9.47406C7.55416 9.50592 7.65948 9.62272 7.65948 9.81385L7.65948 10.1961C7.65948 10.3872 7.55416 10.504 7.34353 10.5359L0.386253 11.7995C0.140514 11.842 9.32994e-05 11.7252 9.33089e-05 11.5128L9.33291e-05 11.0635C9.33381e-05 10.8617 0.0836975 10.779 0.270927 10.779C0.371427 10.779 1.7033 10.6355 1.91494 10.604C2.12658 10.5726 2.38592 10.3781 2.38592 10.005C2.38592 9.63183 2.12658 9.43732 1.91494 9.40591C1.7033 9.3745 0.385695 9.25501 0.285195 9.25501C0.0979647 9.25501 9.34142e-05 9.16342 9.34233e-05 8.96167L9.34446e-05 8.48655ZM3.48192 9.54839C3.17767 9.54839 2.97874 9.7289 2.97874 10.005C2.97874 10.2811 3.17767 10.4616 3.48192 10.4616L3.82979 10.4616C4.13404 10.4616 4.33297 10.2811 4.33297 10.005C4.33297 9.7289 4.13404 9.54839 3.82979 9.54839L3.48192 9.54839Z" fill="#FF5151"/>
<path d="M19.9997 11.513C19.9997 11.7253 19.8592 11.8421 19.6135 11.7997L12.6562 10.5254C12.4456 10.4936 12.3403 10.3768 12.3403 10.1857L12.3403 9.8034C12.3403 9.61227 12.4456 9.49547 12.6562 9.46361L19.6135 8.20003C19.8592 8.15755 19.9997 8.27435 19.9997 8.48672L19.9997 8.93604C19.9997 9.13779 19.9161 9.22046 19.7288 9.22046C19.6283 9.22046 18.2965 9.36405 18.0848 9.39546C17.8732 9.42687 17.6138 9.62137 17.6138 9.99453C17.6138 10.3677 17.8732 10.5622 18.0848 10.5936C18.2965 10.625 19.6141 10.7445 19.7146 10.7445C19.9018 10.7445 19.9997 10.8361 19.9997 11.0378L19.9997 11.513ZM16.5178 10.4511C16.8221 10.4511 17.021 10.2706 17.021 9.99453C17.021 9.71845 16.8221 9.53794 16.5178 9.53794L16.17 9.53794C15.8657 9.53794 15.6668 9.71845 15.6668 9.99453C15.6668 10.2706 15.8657 10.4511 16.17 10.4511L16.5178 10.4511Z" fill="#FF5151"/>
<path d="M0.583125 13.6892C0.476941 13.5053 0.540148 13.334 0.774201 13.2479L7.43648 10.8727C7.63482 10.795 7.78443 10.8435 7.88 11.009L8.07113 11.3401C8.16669 11.5056 8.13389 11.6594 7.9674 11.7923L2.57402 16.3652C2.38244 16.5249 2.20243 16.494 2.09624 16.31L1.87159 15.9209C1.77071 15.7462 1.80178 15.6328 1.96392 15.5392C2.05096 15.4889 3.1326 14.6986 3.30018 14.5656C3.46776 14.4326 3.5951 14.1345 3.40853 13.8113C3.22195 13.4882 2.9001 13.4494 2.70111 13.528C2.50212 13.6066 1.30129 14.1619 1.21426 14.2122C1.05211 14.3058 0.921558 14.2754 0.820683 14.1007L0.583125 13.6892ZM4.1294 12.8679C3.86591 13.02 3.78389 13.2758 3.92193 13.5149C4.05996 13.754 4.3225 13.8109 4.58599 13.6587L4.88725 13.4848C5.15073 13.3327 5.23275 13.0769 5.09472 12.8378C4.95668 12.5987 4.69414 12.5418 4.43066 12.694L4.1294 12.8679Z" fill="#FF5151"/>
<path d="M19.4169 6.31027C19.5231 6.49419 19.4599 6.66555 19.2258 6.75164L12.5635 9.12678C12.3652 9.20451 12.2156 9.15601 12.12 8.99049L11.9289 8.65944C11.8333 8.49392 11.8661 8.34011 12.0326 8.2072L17.426 3.63427C17.6176 3.47461 17.7976 3.50556 17.9038 3.68947L18.1284 4.07859C18.2293 4.25331 18.1982 4.36671 18.0361 4.46033C17.949 4.51058 16.8674 5.30087 16.6998 5.43389C16.5322 5.56691 16.4049 5.86502 16.5915 6.18819C16.7781 6.51135 17.0999 6.55012 17.2989 6.4715C17.4979 6.39289 18.6987 5.83757 18.7857 5.78732C18.9479 5.6937 19.0784 5.72409 19.1793 5.89881L19.4169 6.31027ZM15.8706 7.13161C16.1341 6.97948 16.2161 6.72369 16.0781 6.4846C15.94 6.24551 15.6775 6.18865 15.414 6.34077L15.1128 6.5147C14.8493 6.66683 14.7672 6.92262 14.9053 7.16171C15.0433 7.4008 15.3059 7.45766 15.5693 7.30554L15.8706 7.13161Z" fill="#FF5151"/>
<path d="M3.68921 17.9037C3.5053 17.7975 3.47435 17.6175 3.63401 17.4259L8.21614 12.0378C8.34904 11.8713 8.50286 11.8385 8.66838 11.9341L8.99943 12.1252C9.16495 12.2208 9.21345 12.3704 9.13572 12.5687L6.75138 19.2257C6.66529 19.4598 6.49393 19.523 6.31001 19.4168L5.92089 19.1921C5.74617 19.0913 5.71637 18.9775 5.80999 18.8154C5.86024 18.7283 6.40183 17.5031 6.48044 17.3041C6.55906 17.1051 6.52029 16.7833 6.19712 16.5967C5.87396 16.4101 5.57585 16.5375 5.44283 16.705C5.30981 16.8726 4.54752 17.954 4.49727 18.041C4.40365 18.2031 4.2754 18.2421 4.10068 18.1412L3.68921 17.9037ZM6.34971 15.4192C6.19758 15.6827 6.25445 15.9453 6.49354 16.0833C6.73263 16.2213 6.98842 16.1393 7.14054 15.8758L7.31448 15.5746C7.4666 15.3111 7.40974 15.0485 7.17065 14.9105C6.93156 14.7725 6.67576 14.8545 6.52364 15.118L6.34971 15.4192Z" fill="#FF5151"/>
<path d="M16.3107 2.09633C16.4946 2.20251 16.5255 2.38252 16.3659 2.5741L11.7837 7.96218C11.6508 8.12866 11.497 8.16147 11.3315 8.0659L11.0004 7.87477C10.8349 7.77921 10.7864 7.6296 10.8642 7.43126L13.2485 0.774284C13.3346 0.540231 13.506 0.477025 13.6899 0.583208L14.079 0.807866C14.2537 0.90874 14.2835 1.02248 14.1899 1.18463C14.1396 1.27166 13.5981 2.4969 13.5194 2.69588C13.4408 2.89487 13.4796 3.21672 13.8028 3.4033C14.1259 3.58988 14.424 3.46253 14.5571 3.29495C14.6901 3.12738 15.4524 2.04604 15.5026 1.959C15.5962 1.79686 15.7245 1.75789 15.8992 1.85877L16.3107 2.09633ZM13.6502 4.58076C13.8023 4.31727 13.7454 4.05474 13.5063 3.9167C13.2673 3.77866 13.0115 3.86068 12.8593 4.12417L12.6854 4.42543C12.5333 4.68892 12.5901 4.95145 12.8292 5.08949C13.0683 5.22753 13.3241 5.14551 13.4762 4.88202L13.6502 4.58076Z" fill="#FF5151"/>
<path d="M13.6897 19.4169C13.5058 19.5231 13.3345 19.4599 13.2484 19.2258L10.8732 12.5635C10.7955 12.3652 10.844 12.2156 11.0095 12.12L11.3406 11.9289C11.5061 11.8333 11.6599 11.8661 11.7928 12.0326L16.3657 17.426C16.5254 17.6176 16.4944 17.7976 16.3105 17.9038L15.9214 18.1284C15.7467 18.2293 15.6333 18.1982 15.5397 18.0361C15.4894 17.949 14.6991 16.8674 14.5661 16.6998C14.4331 16.5322 14.135 16.4049 13.8118 16.5915C13.4887 16.7781 13.4499 17.0999 13.5285 17.2989C13.6071 17.4979 14.1624 18.6987 14.2127 18.7857C14.3063 18.9479 14.2759 19.0784 14.1012 19.1793L13.6897 19.4169ZM12.8684 15.8706C13.0205 16.1341 13.2763 16.2161 13.5154 16.0781C13.7545 15.94 13.8114 15.6775 13.6592 15.414L13.4853 15.1128C13.3332 14.8493 13.0774 14.7672 12.8383 14.9053C12.5992 15.0433 12.5423 15.3059 12.6945 15.5693L12.8684 15.8706Z" fill="#FF5151"/>
<path d="M6.30978 0.582637C6.4937 0.476453 6.66506 0.53966 6.75115 0.773713L9.12629 7.43599C9.20402 7.63434 9.15553 7.78394 8.99 7.87951L8.65895 8.07064C8.49343 8.16621 8.33962 8.1334 8.20671 7.96691L3.63378 2.57353C3.47412 2.38195 3.50507 2.20194 3.68898 2.09576L4.0781 1.8711C4.25282 1.77022 4.36622 1.80129 4.45984 1.96343C4.51009 2.05047 5.30038 3.13211 5.4334 3.29969C5.56642 3.46727 5.86454 3.59462 6.1877 3.40804C6.51086 3.22146 6.54963 2.89961 6.47102 2.70062C6.3924 2.50164 5.83708 1.30081 5.78683 1.21377C5.69322 1.05162 5.7236 0.92107 5.89832 0.820196L6.30978 0.582637ZM7.13112 4.12891C6.97899 3.86542 6.7232 3.7834 6.48411 3.92144C6.24502 4.05948 6.18816 4.32201 6.34028 4.5855L6.51421 4.88676C6.66634 5.15024 6.92213 5.23227 7.16122 5.09423C7.40031 4.95619 7.45717 4.69365 7.30505 4.43017L7.13112 4.12891Z" fill="#FF5151"/>
</svg>
